<svg xmlns="http://www.w3.org/2000/svg" width="21.997" height="22" viewBox="0 0 21.997 22">
  <path id="paper-plane" d="M21.193.809A2.719,2.719,0,0,0,18.626.075L3.959,3.164a4.579,4.579,0,0,0-2.615,7.774l1.575,1.574a.917.917,0,0,1,.269.649v2.9a2.718,2.718,0,0,0,.275,1.178l-.007.006.024.024a2.75,2.75,0,0,0,1.249,1.243l.024.024.006-.007a2.718,2.718,0,0,0,1.178.275h2.9a.917.917,0,0,1,.648.268l1.574,1.574A4.549,4.549,0,0,0,14.288,22a4.628,4.628,0,0,0,1.471-.242A4.522,4.522,0,0,0,18.825,18.1l3.094-14.7a2.727,2.727,0,0,0-.726-2.6ZM4.217,11.218,2.641,9.644a2.7,2.7,0,0,1-.662-2.818A2.73,2.73,0,0,1,4.271,4.969L18.792,1.912,5.019,15.687V13.162A2.73,2.73,0,0,0,4.217,11.218Zm12.807,6.573a2.75,2.75,0,0,1-4.665,1.569l-1.577-1.577a2.73,2.73,0,0,0-1.942-.8H6.314L20.089,3.208Z" transform="translate(-0.003 -0.001)" fill="#1593c6"/>
</svg>
