<svg xmlns="http://www.w3.org/2000/svg" width="14.268" height="19.024" viewBox="0 0 14.268 19.024">
  <g id="user_3_" data-name="user (3)" transform="translate(-3)">
    <path id="Path_459" data-name="Path 459" d="M10.756,9.512A4.756,4.756,0,1,0,6,4.756a4.756,4.756,0,0,0,4.756,4.756Zm0-7.927A3.171,3.171,0,1,1,7.585,4.756a3.171,3.171,0,0,1,3.171-3.171Z" transform="translate(-0.622)" fill="#707070"/>
    <path id="Path_460" data-name="Path 460" d="M10.134,14A7.142,7.142,0,0,0,3,21.134a.793.793,0,1,0,1.585,0,5.549,5.549,0,1,1,11.1,0,.793.793,0,0,0,1.585,0A7.142,7.142,0,0,0,10.134,14Z" transform="translate(0 -2.903)" fill="#707070"/>
  </g>
</svg>
