<svg xmlns="http://www.w3.org/2000/svg" width="23.403" height="25.299" viewBox="0 0 23.403 25.299">
  <g id="Group_617" data-name="Group 617" transform="translate(-283.5 -54)">
    <path id="bell" d="M23.545,14.289l-1.987-7.15a9.749,9.749,0,0,0-18.909.5L1.11,14.553a5.229,5.229,0,0,0,5.1,6.364H7.381a5.229,5.229,0,0,0,10.25,0h.876a5.229,5.229,0,0,0,5.039-6.629ZM12.505,23.009A3.138,3.138,0,0,1,9.56,20.918h5.89a3.138,3.138,0,0,1-2.945,2.092ZM21,17.587a3.114,3.114,0,0,1-2.5,1.239H6.215a3.138,3.138,0,0,1-3.062-3.819l1.537-6.92A7.657,7.657,0,0,1,19.542,7.7l1.987,7.15A3.114,3.114,0,0,1,21,17.587Z" transform="translate(282.514 54.193)" fill="#1593c6"/>
    <g id="Ellipse_19" data-name="Ellipse 19" transform="translate(295.903 54)" fill="#ec7373" stroke="#fff" stroke-width="1">
      <circle cx="5.5" cy="5.5" r="5.5" stroke="none"/>
      <circle cx="5.5" cy="5.5" r="5" fill="none"/>
    </g>
  </g>
</svg>
