<svg xmlns="http://www.w3.org/2000/svg" width="19" height="19" viewBox="0 0 19 19">
  <path id="smile" d="M9.5,19A9.5,9.5,0,1,1,19,9.5,9.5,9.5,0,0,1,9.5,19Zm0-17.417A7.917,7.917,0,1,0,17.417,9.5,7.917,7.917,0,0,0,9.5,1.583Zm4.486,10.882a.792.792,0,0,0-1.053-1.183A5.944,5.944,0,0,1,9.5,12.667a5.945,5.945,0,0,1-3.431-1.382.792.792,0,1,0-1.054,1.181A7.484,7.484,0,0,0,9.5,14.25a7.484,7.484,0,0,0,4.486-1.784ZM4.75,7.917c0,.792.709.792,1.583.792s1.583,0,1.583-.792a1.583,1.583,0,0,0-3.167,0Zm6.333,0c0,.792.709.792,1.583.792s1.583,0,1.583-.792a1.583,1.583,0,1,0-3.167,0Z" fill="#224382"/>
</svg>
