<svg xmlns="http://www.w3.org/2000/svg" width="19.519" height="19.519" viewBox="0 0 19.519 19.519">
  <path id="boxes_2_" data-name="boxes (2)" d="M15.859,13.013a.813.813,0,0,1-.813.813H13.419a.813.813,0,0,1,0-1.627h1.627A.813.813,0,0,1,15.859,13.013Zm3.66-.813v4.066a3.256,3.256,0,0,1-3.253,3.253H3.253A3.256,3.256,0,0,1,0,16.266V12.2A3.256,3.256,0,0,1,3.253,8.946h.813V3.253A3.256,3.256,0,0,1,7.32,0H12.2a3.256,3.256,0,0,1,3.253,3.253V8.946h.813A3.256,3.256,0,0,1,19.519,12.2ZM5.693,8.946h8.133V3.253A1.628,1.628,0,0,0,12.2,1.627H7.32A1.628,1.628,0,0,0,5.693,3.253Zm-2.44,8.946H8.946v-7.32H3.253A1.628,1.628,0,0,0,1.627,12.2v4.066A1.628,1.628,0,0,0,3.253,17.893ZM17.893,12.2a1.628,1.628,0,0,0-1.627-1.627H10.573v7.32h5.693a1.628,1.628,0,0,0,1.627-1.627ZM6.1,12.2H4.473a.813.813,0,1,0,0,1.627H6.1a.813.813,0,1,0,0-1.627Zm5.286-8.133a.813.813,0,0,0-.813-.813H8.946a.813.813,0,1,0,0,1.627h1.627A.813.813,0,0,0,11.386,4.066Z" fill="#1593c6"/>
</svg>
