<svg xmlns="http://www.w3.org/2000/svg" width="15.342" height="15.342" viewBox="0 0 15.342 15.342">
  <g id="comment" transform="translate(0 -16.904)">
    <path id="Path_142" data-name="Path 142" d="M15.341,7.174a7.678,7.678,0,1,0-7.66,8.144h4.464a3.2,3.2,0,0,0,3.2-3.193Zm-1.278,4.951a1.917,1.917,0,0,1-1.918,1.916H7.681A6.421,6.421,0,0,1,2.9,11.906,6.329,6.329,0,0,1,1.32,6.916,6.416,6.416,0,0,1,6.853,1.321a6.759,6.759,0,0,1,.831-.052,6.345,6.345,0,0,1,4.078,1.469,6.41,6.41,0,0,1,2.3,4.5Z" transform="translate(0.001 16.928)"/>
    <path id="Path_143" data-name="Path 143" d="M7.639,8.277h2.554a.639.639,0,0,0,0-1.277H7.639a.639.639,0,1,0,0,1.277Z" transform="translate(-2.523 14.486)"/>
    <path id="Path_144" data-name="Path 144" d="M12.747,11H7.639a.639.639,0,1,0,0,1.277h5.109a.639.639,0,0,0,0-1.277Z" transform="translate(-2.522 13.04)"/>
    <path id="Path_145" data-name="Path 145" d="M12.747,15H7.639a.639.639,0,1,0,0,1.277h5.109a.639.639,0,0,0,0-1.277Z" transform="translate(-2.522 11.594)"/>
  </g>
</svg>
