<svg xmlns="http://www.w3.org/2000/svg" width="32" height="32" viewBox="0 0 32 32">
  <g id="Group_16404" data-name="Group 16404" transform="translate(-329 -107)">
    <g id="Group_16403" data-name="Group 16403" transform="translate(329 107)">
      <path id="Path_30515" data-name="Path 30515" d="M0,0H32V32H0Z" fill="none"/>
      <path id="Path_30516" data-name="Path 30516" d="M3,17H22.042a4.937,4.937,0,0,0,3.553-1.34L30,11H21.147a7.82,7.82,0,0,0-2.117.29l-5.059,1.42a7.82,7.82,0,0,1-2.117.29H5.132L3,17Z" transform="translate(0 4.889)" fill="none" stroke="#1593c6" stroke-linecap="round" stroke-linejoin="round" stroke-width="1.5"/>
      <path id="Path_30517" data-name="Path 30517" d="M6,13,7.5,8" transform="translate(2.133 3.368)" fill="none" stroke="#1593c6" stroke-linecap="round" stroke-linejoin="round" stroke-width="1.5"/>
      <path id="Path_30518" data-name="Path 30518" d="M6,8h8l2,3" transform="translate(3.429 3.048)" fill="none" stroke="#1593c6" stroke-linecap="round" stroke-linejoin="round" stroke-width="1.5"/>
    </g>
    <line id="Line_90" data-name="Line 90" y2="5" transform="translate(342.5 118)" fill="none" stroke="#1593c6" stroke-width="1.5"/>
  </g>
</svg>
