<svg xmlns="http://www.w3.org/2000/svg" width="19.236" height="19.224" viewBox="0 0 19.236 19.224">
  <g id="Group_645" data-name="Group 645" transform="translate(-284.9 -284.9)">
    <path id="Path_462" data-name="Path 462" d="M285,303.431v-.3c.008-.009.021-.016.025-.026.392-1.223.781-2.448,1.177-3.67a.415.415,0,0,0-.03-.363,9.067,9.067,0,0,1-1.036-3c-.051-.322-.091-.647-.137-.97v-1.152a1.275,1.275,0,0,0,.032-.16,8.962,8.962,0,0,1,1.085-3.748,9.378,9.378,0,0,1,6.739-4.9c.363-.07.733-.1,1.1-.15h1.115a.984.984,0,0,0,.143.03,9.29,9.29,0,0,1,2.392.486,9.526,9.526,0,0,1,6.375,9.949,9.16,9.16,0,0,1-1.522,4.273,9.331,9.331,0,0,1-7.647,4.276,9.107,9.107,0,0,1-4.865-1.163.4.4,0,0,0-.346-.031c-1.181.385-2.365.761-3.546,1.144a.741.741,0,0,1-.81-.146A1.979,1.979,0,0,1,285,303.431Zm1.9-1.3c.8-.258,1.573-.473,2.318-.755a1.525,1.525,0,0,1,1.413.144,8.011,8.011,0,1,0,2.268-14.858,7.818,7.818,0,0,0-5.573,4.3,7.7,7.7,0,0,0-.731,4.818,7.866,7.866,0,0,0,1.06,2.889.918.918,0,0,1,.093.831c-.125.356-.235.717-.35,1.075C287.232,301.083,287.071,301.588,286.9,302.129Z" fill="#6c6c6c" stroke="#707070" stroke-width="0.2" fill-rule="evenodd"/>
    <path id="Path_463" data-name="Path 463" d="M417.874,516.934a.928.928,0,1,1-.918-.928A.936.936,0,0,1,417.874,516.934Z" transform="translate(-126.15 -222.42)" fill="#6c6c6c" stroke="#707070" stroke-width="0.2" fill-rule="evenodd"/>
    <path id="Path_464" data-name="Path 464" d="M516.943,517.861a.928.928,0,1,1,.919-.927A.936.936,0,0,1,516.943,517.861Z" transform="translate(-222.422 -222.421)" fill="#6c6c6c" stroke="#707070" stroke-width="0.2" fill-rule="evenodd"/>
    <path id="Path_465" data-name="Path 465" d="M616.917,516.007a.928.928,0,1,1-.923.923A.936.936,0,0,1,616.917,516.007Z" transform="translate(-318.692 -222.421)" fill="#6c6c6c" stroke="#707070" stroke-width="0.2" fill-rule="evenodd"/>
  </g>
</svg>
