<svg xmlns="http://www.w3.org/2000/svg" width="15.261" height="13.409" viewBox="0 0 15.261 13.409">
  <path id="heart_1_" data-name="heart (1)" d="M11.121,1.917a4.068,4.068,0,0,0-3.5,2.1,4.068,4.068,0,0,0-3.5-2.1A4.322,4.322,0,0,0,0,6.4c0,2.89,3.042,6.046,5.593,8.186a3.161,3.161,0,0,0,4.068,0c2.551-2.14,5.593-5.3,5.593-8.186a4.322,4.322,0,0,0-4.131-4.481ZM8.842,13.612a1.89,1.89,0,0,1-2.434,0C3.142,10.872,1.269,8.243,1.269,6.4a3.051,3.051,0,0,1,2.86-3.21A3.051,3.051,0,0,1,6.99,6.4a.636.636,0,0,0,1.271,0,3.051,3.051,0,0,1,2.86-3.21,3.051,3.051,0,0,1,2.86,3.21c0,1.845-1.873,4.474-5.139,7.211Z" transform="translate(0.005 -1.917)"/>
</svg>
