<svg id="following" xmlns="http://www.w3.org/2000/svg" width="19.93" height="19.928" viewBox="0 0 19.93 19.928">
  <path id="Path_456" data-name="Path 456" d="M7.982,9.964A4.982,4.982,0,1,0,3,4.982,4.982,4.982,0,0,0,7.982,9.964Zm0-8.3A3.321,3.321,0,1,1,4.661,4.982,3.321,3.321,0,0,1,7.982,1.661Z" transform="translate(-0.509)" fill="#1593c6"/>
  <path id="Path_457" data-name="Path 457" d="M7.473,14A7.482,7.482,0,0,0,0,21.473a.83.83,0,0,0,1.661,0,5.812,5.812,0,0,1,11.625,0,.83.83,0,0,0,1.661,0A7.482,7.482,0,0,0,7.473,14Z" transform="translate(0 -2.375)" fill="#1593c6"/>
  <path id="Path_458" data-name="Path 458" d="M20.982,7.875A1.75,1.75,0,0,0,19.321,9.7,1.668,1.668,0,1,0,16,9.7c0,1.436,1.873,3.12,2.807,3.869a.824.824,0,0,0,1.03,0c.933-.747,2.807-2.432,2.807-3.869A1.75,1.75,0,0,0,20.982,7.875Z" transform="translate(-2.714 -1.336)" fill="#1593c6"/>
</svg>
