<svg xmlns="http://www.w3.org/2000/svg" width="18.936" height="18.937" viewBox="0 0 18.936 18.937">
  <path id="hammer-war_1_" data-name="hammer-war (1)" d="M18.614,9.906a1.926,1.926,0,0,0-.979-1.427L14.728,6.864,14.235,4.4l-2.467-.494L10.153,1A1.941,1.941,0,0,0,7.084.568L3.661,3.993a1.94,1.94,0,0,0,.429,3.068L7.588,9l.472.472L3.333,14.2a2.331,2.331,0,1,0,1.1,1.1l4.727-4.727.472.472,1.942,3.5a1.94,1.94,0,0,0,3.069.43l3.424-3.424a1.924,1.924,0,0,0,.55-1.641ZM2.329,17.08a.776.776,0,1,1,.776-.776A.777.777,0,0,1,2.329,17.08ZM13.1,6.632,10.255,9.476l-1.1-1.1L12,5.535l.915.182ZM4.65,5.419a.38.38,0,0,1,.11-.328L8.183,1.666a.388.388,0,0,1,.613.085l1.71,3.08L7.924,7.414,4.844,5.7a.381.381,0,0,1-.2-.285ZM16.967,10.45l-3.424,3.424a.388.388,0,0,1-.613-.085l-1.711-3.08L13.8,8.125l3.08,1.711a.388.388,0,0,1,.085.613Z" transform="translate(0.15 0.153)" fill="#707070" stroke="#fff" stroke-width="0.3"/>
</svg>
