<svg xmlns="http://www.w3.org/2000/svg" width="55" height="52" viewBox="0 0 55 52">
  <g id="Group_16626" data-name="Group 16626" transform="translate(-85 -643)">
    <g id="Rectangle_344" data-name="Rectangle 344" transform="translate(85 643)" fill="#fff" stroke="#f1f1f1" stroke-width="1">
      <rect width="55" height="52" rx="5" stroke="none"/>
      <rect x="0.5" y="0.5" width="54" height="51" rx="4.5" fill="none"/>
    </g>
    <g id="Google__G__Logo_1_" data-name="Google__G__Logo (1)" transform="translate(97.918 654.275)">
      <path id="Path_30428" data-name="Path 30428" d="M-1089.33-687.239v5.666h7.874a6.746,6.746,0,0,1-2.939,4.4l4.748,3.684a14.3,14.3,0,0,0,4.363-10.76,16.792,16.792,0,0,0-.266-2.993Z" transform="translate(1103.96 699.209)" fill="#4285f4"/>
      <path id="Path_30429" data-name="Path 30429" d="M-1169.5-651.791l-1.071.82-3.791,2.953h0a14.628,14.628,0,0,0,13.061,8.073,13.964,13.964,0,0,0,9.683-3.538l-4.748-3.684a8.715,8.715,0,0,1-4.934,1.41,8.735,8.735,0,0,1-8.193-6.025Z" transform="translate(1175.93 669.206)" fill="#34a853"/>
      <path id="Path_30430" data-name="Path 30430" d="M-1183.008-712.61a14.449,14.449,0,0,0-1.569,6.557,14.449,14.449,0,0,0,1.569,6.557c0,.013,4.868-3.777,4.868-3.777a8.764,8.764,0,0,1-.466-2.78,8.764,8.764,0,0,1,.466-2.78Z" transform="translate(1184.577 720.683)" fill="#fbbc05"/>
      <path id="Path_30431" data-name="Path 30431" d="M-1161.3-759.345a7.983,7.983,0,0,1,5.6,2.181l4.19-4.19a14.036,14.036,0,0,0-9.789-3.817,14.6,14.6,0,0,0-13.061,8.073l4.868,3.777A8.734,8.734,0,0,1-1161.3-759.345Z" transform="translate(1175.931 765.171)" fill="#ea4335"/>
    </g>
  </g>
</svg>
