<svg xmlns="http://www.w3.org/2000/svg" width="28.825" height="29" viewBox="0 0 28.825 29">
  <g id="instagram-reels-icon" transform="translate(-5.578)">
    <path id="Path_30495" data-name="Path 30495" d="M8.293,0H20.532a8.324,8.324,0,0,1,8.293,8.293V20.709a8.271,8.271,0,0,1-2.436,5.85l0,0A8.269,8.269,0,0,1,20.534,29H8.293a8.279,8.279,0,0,1-5.858-2.436L2.379,26.5A8.261,8.261,0,0,1,0,20.707V8.293A8.316,8.316,0,0,1,8.293,0ZM21.6,7.321l.017.026h5.1a6.278,6.278,0,0,0-6.179-5.3H18.439L21.6,7.321Zm-2.358.026-3.174-5.3H9.1l3.212,5.3Zm-9.3,0L6.832,2.216A6.3,6.3,0,0,0,2.115,7.347H9.938ZM26.781,9.39H2.044V20.709A6.229,6.229,0,0,0,3.828,25.07l.052.05a6.236,6.236,0,0,0,4.413,1.838H20.532a6.228,6.228,0,0,0,4.411-1.834l0,0a6.228,6.228,0,0,0,1.834-4.411V9.39ZM12.024,12.968l6.332,4.118a.977.977,0,0,1,.267.255.921.921,0,0,1-.236,1.279l-6.306,3.722a.924.924,0,0,1-1.508-.715v-7.9h0a.92.92,0,0,1,1.447-.755Z" transform="translate(5.578)" fill="#1593c6"/>
  </g>
</svg>
