<svg xmlns="http://www.w3.org/2000/svg" width="56" height="52" viewBox="0 0 56 52">
  <g id="Group_16628" data-name="Group 16628" transform="translate(-213 -643)">
    <g id="Rectangle_346" data-name="Rectangle 346" transform="translate(213 643)" fill="#fff" stroke="#f1f1f1" stroke-width="1">
      <rect width="56" height="52" rx="5" stroke="none"/>
      <rect x="0.5" y="0.5" width="55" height="51" rx="4.5" fill="none"/>
    </g>
    <path id="Apple_logo_black_2_" data-name="Apple_logo_black (2)" d="M27.315,11.815a7.849,7.849,0,0,0-3.75,6.6,7.641,7.641,0,0,0,4.651,7.008,18.176,18.176,0,0,1-2.381,4.918c-1.483,2.135-3.033,4.267-5.39,4.267s-2.963-1.369-5.684-1.369c-2.651,0-3.594,1.414-5.75,1.414s-3.66-1.976-5.39-4.4A21.229,21.229,0,0,1,0,18.778C0,12.041,4.381,8.467,8.693,8.467c2.291,0,4.2,1.5,5.639,1.5,1.369,0,3.5-1.594,6.11-1.594a8.171,8.171,0,0,1,6.873,3.438ZM19.2,5.525A7.739,7.739,0,0,0,21.045.7a3.327,3.327,0,0,0-.066-.7,7.752,7.752,0,0,0-5.1,2.627,7.535,7.535,0,0,0-1.91,4.7,3.182,3.182,0,0,0,.066.627A2.712,2.712,0,0,0,14.508,8a6.717,6.717,0,0,0,4.7-2.471Z" transform="translate(226.798 650.127)"/>
  </g>
</svg>
