<svg xmlns="http://www.w3.org/2000/svg" width="29.642" height="29.575" viewBox="0 0 29.642 29.575">
  <path id="megaphone_2_" data-name="megaphone (2)" d="M20.595,0a1.211,1.211,0,0,0-1.211,1.211c0,3.573-3.129,4.846-6.057,4.846H4.846A4.846,4.846,0,0,0,0,10.9v2.423a4.82,4.82,0,0,0,1.834,3.766L6.162,26.75a3.917,3.917,0,0,0,3.577,2.325,3.613,3.613,0,0,0,3.3-5.088l-2.665-5.815h2.957c2.928,0,6.057,1.273,6.057,4.846a1.211,1.211,0,0,0,2.423,0V1.211A1.211,1.211,0,0,0,20.595,0ZM10.827,24.979a1.191,1.191,0,0,1-1.088,1.673,1.493,1.493,0,0,1-1.364-.889l-3.4-7.591H7.7Zm8.557-7.292a9.356,9.356,0,0,0-6.057-1.938H4.846a2.423,2.423,0,0,1-2.423-2.423V10.9A2.423,2.423,0,0,1,4.846,8.48h8.48a9.356,9.356,0,0,0,6.057-1.932Zm9.571,1.032a1.211,1.211,0,0,1-1.626.543l-2.423-1.211a1.212,1.212,0,1,1,1.083-2.169l2.423,1.211a1.211,1.211,0,0,1,.543,1.62Zm-4.591-10.9a1.211,1.211,0,0,1,.543-1.626l2.423-1.211a1.212,1.212,0,0,1,1.083,2.169L25.988,8.359A1.211,1.211,0,0,1,24.363,7.816Zm-.133,4.3A1.211,1.211,0,0,1,25.441,10.9h2.423a1.211,1.211,0,1,1,0,2.423H25.441A1.211,1.211,0,0,1,24.229,12.115Z" transform="translate(0.25 0.25)" fill="#1593c6" stroke="#fff" stroke-width="0.5"/>
</svg>
