<svg xmlns="http://www.w3.org/2000/svg" width="29.5" height="29.5" viewBox="0 0 29.5 29.5">
  <path id="add" d="M14.5,0A14.5,14.5,0,1,0,29,14.5,14.5,14.5,0,0,0,14.5,0Zm0,26.583A12.083,12.083,0,1,1,26.583,14.5,12.083,12.083,0,0,1,14.5,26.583ZM20.542,14.5a1.208,1.208,0,0,1-1.208,1.208H15.708v3.625a1.208,1.208,0,1,1-2.417,0V15.708H9.667a1.208,1.208,0,0,1,0-2.417h3.625V9.667a1.208,1.208,0,0,1,2.417,0v3.625h3.625A1.208,1.208,0,0,1,20.542,14.5Z" transform="translate(0.25 0.25)" fill="#224382" stroke="#ecf3ff" stroke-width="0.5"/>
</svg>
