<svg xmlns="http://www.w3.org/2000/svg" xmlns:xlink="http://www.w3.org/1999/xlink" width="113.901" height="28.5" viewBox="0 0 113.901 28.5">
  <defs>
    <clipPath id="clip-path">
      <path id="Path_12" data-name="Path 12" d="M569.884,478.82a4.808,4.808,0,0,0,4.843,4.847h0a4.86,4.86,0,0,0,2.413-.63,3.705,3.705,0,0,0,.437-.323,1.039,1.039,0,0,0-.063-1.653l-.5-.349-.272.258a2.925,2.925,0,0,1-2.015.8h-.009a2.862,2.862,0,0,1-2.46-1.362h0l-.008-.015a2.934,2.934,0,0,1-.338-.794h.014a2.819,2.819,0,0,1,.457-2.537h0a2.884,2.884,0,0,1,2.338-1.175h.007a2.9,2.9,0,0,1,2.745,1.919h-3.962a.94.94,0,0,0-.94.933,3.092,3.092,0,0,0,.117.86H577.8a1.63,1.63,0,0,0,1.582-2.044c-.048-.176-.1-.35-.161-.517a2.8,2.8,0,0,0-.109-.279,3.018,3.018,0,0,0-.241-.458h0a4.854,4.854,0,0,0-8.99,2.521" transform="translate(-569.884 -473.986)" fill="none"/>
    </clipPath>
    <linearGradient id="linear-gradient" x1="0.5" x2="0.5" y2="1" gradientUnits="objectBoundingBox">
      <stop offset="0" stop-color="#00acd3"/>
      <stop offset="1" stop-color="#3c63ad"/>
    </linearGradient>
    <clipPath id="clip-path-2">
      <path id="Path_13" data-name="Path 13" d="M550.368,426.018a6.288,6.288,0,0,1,.093,2.461c.017.01.031.021.046.031.718-.356,1.436-.712,2.172-1.074a8.488,8.488,0,0,1-.4,2.646,8.609,8.609,0,0,1-.4,1.008,8.6,8.6,0,0,1-3.266,3.62,7.122,7.122,0,0,1-1.772.808c-.393.11-.792.2-1.19.293-.249.059-.249.054-.249-.2V433.6h-2.363v.62c0,.5,0,1,0,1.494,0,.095-.016.16-.135.131-.48-.121-.969-.21-1.436-.367a8.5,8.5,0,0,1-4.913-4.417,11.129,11.129,0,0,1-.516-1.453,7.461,7.461,0,0,1-.228-1.125c-.047-.344-.052-.7-.077-1.049.756.369,1.476.723,2.23,1.093-.006-.1-.006-.135-.013-.169a5.764,5.764,0,0,1,.08-2.259.148.148,0,0,0-.066-.12c-.438-.248-.887-.475-1.315-.738a13.81,13.81,0,0,1-2.366-1.831,9.749,9.749,0,0,0-.408,1.1,10.646,10.646,0,0,0-.161,5.305,10.861,10.861,0,0,0,1.476,3.518,11.408,11.408,0,0,0,1.567,1.89c.354.341.675.6.764.671a10.87,10.87,0,0,0,2.479,1.48,9.289,9.289,0,0,0,1.956.62,15.606,15.606,0,0,0,1.807.221,9.15,9.15,0,0,0,2.753-.228,14.616,14.616,0,0,0,1.73-.543,9.5,9.5,0,0,0,2.228-1.22,10.766,10.766,0,0,0,2.938-3.166,10.045,10.045,0,0,0,1.18-2.736,10.778,10.778,0,0,0,.315-1.71,11.235,11.235,0,0,0-.018-2.344,8.42,8.42,0,0,0-.582-2.554c-.057-.138-.11-.249-.144-.325a14.588,14.588,0,0,1-3.793,2.625M543.2,415.876a1.005,1.005,0,0,1,1.876-.664,1.036,1.036,0,0,1-.515,1.425.924.924,0,0,1-.338.064,1.065,1.065,0,0,1-1.022-.824m-.572-2.277a2.491,2.491,0,0,0-.979,1.516,2.583,2.583,0,0,0,.261,1.823,11.117,11.117,0,0,0-2.794,1.043,10.776,10.776,0,0,0-2.392,1.758,13.256,13.256,0,0,0,1.708,1.333.216.216,0,0,0,.19,0c.11-.059.2-.153.307-.221.47-.308.928-.636,1.413-.915a7.29,7.29,0,0,1,1.953-.726c.235-.054.476-.09.731-.14.005.089.013.151.013.213v2.712H545.4v-2.685c0-.075.011-.152.016-.236a9.054,9.054,0,0,1,2.008.547,8.3,8.3,0,0,1,2.305,1.418.2.2,0,0,0,.3.012c.375-.285.759-.559,1.133-.848.185-.143.356-.307.533-.461a10.532,10.532,0,0,0-5.207-2.812,2.611,2.611,0,0,0-2.3-3.845,2.6,2.6,0,0,0-1.556.517" transform="translate(-533.457 -413.082)" fill="none"/>
    </clipPath>
  </defs>
  <g id="Group_7" data-name="Group 7" transform="translate(-21.302 -57.502)">
    <g id="Group_2" data-name="Group 2" transform="translate(21.302 61.203)">
      <g id="Group_109" data-name="Group 109" transform="translate(0 0)">
        <path id="Path_1" data-name="Path 1" d="M209.893,437.155c-.252,0-.5,0-.751,0h-.014a.931.931,0,0,0-.827.469q-1.634,2.668-3.272,5.333l1.037,1.673a.778.778,0,0,0,1.322,0l3.887-6.24c.026-.041.049-.084.075-.133l.6-1.1Z" transform="translate(-196.438 -436.905)" fill="#252f69"/>
        <path id="Path_2" data-name="Path 2" d="M161.909,447.3a.624.624,0,0,0,0-.658l-2.231-3.6h0q-1.683-2.716-3.366-5.434a.93.93,0,0,0-.813-.46h-.024c-.243.005-.486,0-.73,0h-2.121l.626,1.074.031.054c.024.042.044.076.065.111l.806,1.3q2.372,3.819,4.741,7.64,0,2.633,0,5.265v1.824h1.66a1.351,1.351,0,0,0,1.351-1.351v-.626q0-2.567,0-5.135Z" transform="translate(-152.626 -436.905)" fill="#252f69"/>
        <path id="Path_3" data-name="Path 3" d="M243.6,470.591v2.851l-.406.02h-3.7a1.687,1.687,0,0,1-.755-.16,1.85,1.85,0,0,1,0-3.321,1.689,1.689,0,0,1,.755-.16h5.486a1.235,1.235,0,0,0,1.235-1.235v-2.341a1.2,1.2,0,0,0-.018-.217,3.749,3.749,0,0,0-3.687-3.08h-2.762a1.282,1.282,0,0,0-1.282,1.282v1.332h4.044a1.14,1.14,0,0,1,1.061.733.435.435,0,0,1,.028.15v.772h-2c-.86,0-1.563,0-2.212.006a4.226,4.226,0,0,0-2.924,1.168,4.184,4.184,0,0,0-1.442,3.184v.051a4.291,4.291,0,0,0,1.442,3.271,4.226,4.226,0,0,0,2.924,1.168c.648,0,1.354.006,2.22.006h4.606v-5.475Z" transform="translate(-221.518 -458.471)" fill="#252f69"/>
        <path id="Path_4" data-name="Path 4" d="M325.821,471.059l-.165-.349a1.116,1.116,0,0,0-.077-.134l-.514-.833-.62.813-.057.074a4.136,4.136,0,0,1-3.383,1.747,5.275,5.275,0,0,1-.891-.079,4.046,4.046,0,0,1-3.365-4.536,3.905,3.905,0,0,1,1.229-2.447,4.1,4.1,0,0,1,2.922-1.152c.123,0,.251,0,.378.014a4.1,4.1,0,0,1,2.3.9,4.663,4.663,0,0,1,.9.953l.651.9.595-1.247a2.321,2.321,0,0,0-.69-2.829l-.005,0a6.644,6.644,0,0,0-4.059-1.386,7.592,7.592,0,0,0-1.549.165,6.756,6.756,0,0,0-5.363,7.487,6.462,6.462,0,0,0,2.246,4.244,6.756,6.756,0,0,0,4.509,1.71,7.925,7.925,0,0,0,1.423-.133,6.518,6.518,0,0,0,3.828-2.215.794.794,0,0,0,.121-.9c-.123-.251-.246-.51-.365-.76" transform="translate(-287.546 -457.232)" fill="#252f69"/>
        <path id="Path_5" data-name="Path 5" d="M402.122,438.788v-1.624a1.511,1.511,0,0,0-1.511-1.511H399.4v6.325a5.233,5.233,0,0,1,2.076-2.083,1.269,1.269,0,0,0,.65-1.108" transform="translate(-358.94 -435.653)" fill="#252f69"/>
        <path id="Path_6" data-name="Path 6" d="M410.246,473.647V471.6q0-2.431,0-4.862a6.4,6.4,0,0,0-.221-1.742,4.312,4.312,0,0,0-3.159-3.2,5.986,5.986,0,0,0-1.594-.21,7.352,7.352,0,0,0-1,.073,6.251,6.251,0,0,0-1.822.584c-.111.062-.221.127-.326.2v-.02a5.7,5.7,0,0,0-2.725,5.311v6.119a1.239,1.239,0,0,0,1.239,1.239h1.492v-2.606q0-2.463,0-4.927a4.707,4.707,0,0,1,.189-1.326,2.41,2.41,0,0,1,1.445-1.709,3.539,3.539,0,0,1,2.017-.168,1.919,1.919,0,0,1,1.55,1.289,3.322,3.322,0,0,1,.179,1.183v7.028a1.239,1.239,0,0,0,1.239,1.239h1.461v0h.035v-.764h0Z" transform="translate(-358.94 -457.338)" fill="#252f69"/>
        <path id="Path_7" data-name="Path 7" d="M485.016,459.516l-.624.183-.21.063c-.142.043-.276.084-.407.117a4.688,4.688,0,0,1-1.151.155,3.525,3.525,0,0,1-.684-.066,1.612,1.612,0,0,1-1.392-1.392,4.672,4.672,0,0,1-.076-.86c0-1.7,0-3.767,0-5.857h2.667a1.639,1.639,0,0,0,1.639-1.639v-1.061h-4.305q0-.349,0-.693v-3.02h-1.061a1.639,1.639,0,0,0-1.639,1.639v1.839c0,2.94,0,6.318,0,8.827a5.645,5.645,0,0,0,.4,2.224,4.229,4.229,0,0,0,2.869,2.505,5.611,5.611,0,0,0,1.573.211c.232,0,.467-.011.719-.035a5.763,5.763,0,0,0,.842-.181,1.592,1.592,0,0,0,1.116-1.962Z" transform="translate(-424.463 -443.84)" fill="#252f69"/>
        <path id="Path_8" data-name="Path 8" d="M685.815,462.132a4.254,4.254,0,0,0-1.088.413,3.849,3.849,0,0,0-.46.3v-.672h-1.358a1.415,1.415,0,0,0-1.416,1.415v12.073h1.367a1.415,1.415,0,0,0,1.415-1.416V473.1c0-1.719,0-3.5,0-5.243a6.025,6.025,0,0,1,.076-.948,2.334,2.334,0,0,1,1.951-2.041,5.443,5.443,0,0,1,.552-.074c.1-.01.2-.021.306-.034l.583-.072v-1.223a1.392,1.392,0,0,0-1.517-1.386,3.55,3.55,0,0,0-.418.056" transform="translate(-594.788 -457.739)" fill="#252f69"/>
        <path id="Path_9" data-name="Path 9" d="M730.358,442.172v15.49h1.191a1.409,1.409,0,0,0,1.408-1.408v-15.49h-1.191a1.408,1.408,0,0,0-1.408,1.408" transform="translate(-635.641 -439.926)" fill="#252f69"/>
        <path id="Path_10" data-name="Path 10" d="M763.793,471.056l-1.885-4.159-1.5-3.318a.8.8,0,0,0-.756-.51c-.284,0-.569,0-.856,0h-1.875l.464,1.052.039.087,1.347,2.963q1.4,3.076,2.8,6.152a.66.66,0,0,0,1.2,0Z" transform="translate(-657.846 -458.574)" fill="#252f69"/>
        <path id="Path_11" data-name="Path 11" d="M785.49,463.069q-.356,0-.712,0h-.011a.882.882,0,0,0-.809.519l-1.3,2.874h0l-4.263,9.421h0l-.547,1.206,0,.008-1.178,2.6-.9,1.989a1.2,1.2,0,0,0,1.09,1.69h1.422l.191-.422,1.844-4.072c.827-1.826,1.678-3.706,2.279-5.034l0-.01q2.18-4.818,4.359-9.636c.015-.033.028-.066.043-.1l.418-1.025Z" transform="translate(-673.512 -458.572)" fill="#252f69"/>
      </g>
    </g>
    <g id="Group_4" data-name="Group 4" transform="translate(89.71 67.487)">
      <g id="Group_3" data-name="Group 3" clip-path="url(#clip-path)">
        <rect id="Rectangle_2" data-name="Rectangle 2" width="13.679" height="13.663" transform="translate(-4.714 3.732) rotate(-38.382)" fill="url(#linear-gradient)"/>
      </g>
    </g>
    <g id="Group_6" data-name="Group 6" transform="translate(83.738 57.502)">
      <g id="Group_5" data-name="Group 5" clip-path="url(#clip-path-2)">
        <rect id="Rectangle_3" data-name="Rectangle 3" width="32.814" height="33.353" transform="translate(-12.607 9.717) rotate(-38.382)" fill="url(#linear-gradient)"/>
      </g>
    </g>
  </g>
</svg>
